<?xml version="1.0"?>
<!-- Generated by SVGo -->
<svg width="277.652mm" height="106.202mm"
     viewBox="0.000 0.000 277.652 106.202"
     xmlns="http://www.w3.org/2000/svg" 
     xmlns:xlink="http://www.w3.org/1999/xlink">
<polygon points="267.652,5.001 268.044,5.016 268.434,5.062 268.819,5.139 269.197,5.245 269.565,5.381 269.921,5.545 270.264,5.737 270.590,5.955 270.899,6.198 271.187,6.465 271.454,6.753 271.697,7.062 271.915,7.388 272.107,7.731 272.271,8.087 272.407,8.455 272.513,8.833 272.590,9.218 272.636,9.608 272.651,10.001 272.652,96.202 272.636,96.594 272.590,96.984 272.513,97.369 272.407,97.747 272.271,98.115 272.107,98.471 271.915,98.814 271.697,99.140 271.454,99.449 271.187,99.737 270.899,100.004 270.590,100.247 270.264,100.465 269.921,100.657 269.565,100.821 269.197,100.957 268.819,101.063 268.434,101.140 268.044,101.186 267.652,101.202 10.001,101.202 9.608,101.186 9.218,101.140 8.833,101.063 8.455,100.957 8.087,100.821 7.731,100.657 7.388,100.465 7.062,100.247 6.753,100.004 6.465,99.737 6.198,99.449 5.955,99.140 5.737,98.814 5.545,98.471 5.381,98.115 5.245,97.747 5.139,97.369 5.062,96.984 5.016,96.594 5.000,96.201 5.001,10.001 5.016,9.608 5.062,9.218 5.139,8.833 5.245,8.455 5.381,8.087 5.545,7.731 5.737,7.388 5.955,7.062 6.198,6.753 6.465,6.465 6.753,6.198 7.062,5.955 7.388,5.737 7.731,5.545 8.087,5.381 8.455,5.245 8.833,5.139 9.218,5.062 9.608,5.016 10.001,5.000" style="fill:none;stroke-width:0.050000mm;stroke:black"/>
<polygon points="9.537,94.775 9.119,94.988 8.787,95.320 8.574,95.738 8.501,96.202 8.574,96.665 8.787,97.083 9.119,97.415 9.537,97.628 10.001,97.702 10.464,97.628 10.882,97.415 11.214,97.083 11.427,96.665 11.501,96.202 11.427,95.738 11.214,95.320 10.882,94.988 10.464,94.775 10.001,94.702" style="fill:none;stroke-width:0.050000mm;stroke:black"/>
<polygon points="138.362,94.775 137.944,94.988 137.612,95.320 137.399,95.738 137.326,96.202 137.399,96.665 137.612,97.083 137.944,97.415 138.362,97.628 138.826,97.702 139.290,97.628 139.708,97.415 140.040,97.083 140.253,96.665 140.326,96.202 140.253,95.738 140.040,95.320 139.708,94.988 139.290,94.775 138.826,94.702" style="fill:none;stroke-width:0.050000mm;stroke:black"/>
<polygon points="267.188,94.775 266.770,94.988 266.438,95.320 266.225,95.738 266.152,96.202 266.225,96.665 266.438,97.083 266.770,97.415 267.188,97.628 267.652,97.702 268.115,97.628 268.533,97.415 268.865,97.083 269.078,96.665 269.152,96.202 269.078,95.738 268.865,95.320 268.533,94.988 268.115,94.775 267.652,94.702" style="fill:none;stroke-width:0.050000mm;stroke:black"/>
<polygon points="15.001,15.001 15.001,91.202 262.652,91.202 262.652,15.001" style="fill:none;stroke-width:0.050000mm;stroke:black"/>
<polygon points="9.537,8.574 9.119,8.787 8.787,9.119 8.574,9.537 8.501,10.001 8.574,10.464 8.787,10.882 9.119,11.214 9.537,11.427 10.001,11.501 10.464,11.427 10.882,11.214 11.214,10.882 11.427,10.464 11.501,10.001 11.427,9.537 11.214,9.119 10.882,8.787 10.464,8.574 10.001,8.501" style="fill:none;stroke-width:0.050000mm;stroke:black"/>
<polygon points="267.188,8.574 266.770,8.787 266.438,9.119 266.225,9.537 266.152,10.001 266.225,10.464 266.438,10.882 266.770,11.214 267.188,11.427 267.652,11.501 268.115,11.427 268.533,11.214 268.865,10.882 269.078,10.464 269.152,10.001 269.078,9.537 268.865,9.119 268.533,8.787 268.115,8.574 267.652,8.501" style="fill:none;stroke-width:0.050000mm;stroke:black"/>
<polygon points="138.362,8.574 137.944,8.787 137.612,9.119 137.399,9.537 137.326,10.001 137.399,10.464 137.612,10.882 137.944,11.214 138.362,11.427 138.826,11.501 139.290,11.427 139.708,11.214 140.040,10.882 140.253,10.464 140.326,10.001 140.253,9.537 140.040,9.119 139.708,8.787 139.290,8.574 138.826,8.501" style="fill:none;stroke-width:0.050000mm;stroke:black"/>
</svg>
