<?xml version="1.0"?>
<!-- Generated by SVGo -->
<svg width="277.652mm" height="106.202mm"
     viewBox="0.000 0.000 277.652 106.202"
     xmlns="http://www.w3.org/2000/svg" 
     xmlns:xlink="http://www.w3.org/1999/xlink">
<polygon points="267.652,5.001 268.044,5.016 268.434,5.062 268.819,5.139 269.197,5.245 269.565,5.381 269.921,5.545 270.264,5.737 270.590,5.955 270.899,6.198 271.187,6.465 271.454,6.753 271.697,7.062 271.915,7.388 272.107,7.731 272.271,8.087 272.407,8.455 272.513,8.833 272.590,9.218 272.636,9.608 272.651,10.001 272.652,96.202 272.636,96.594 272.590,96.984 272.513,97.369 272.407,97.747 272.271,98.115 272.107,98.471 271.915,98.814 271.697,99.140 271.454,99.449 271.187,99.737 270.899,100.004 270.590,100.247 270.264,100.465 269.921,100.657 269.565,100.821 269.197,100.957 268.819,101.063 268.434,101.140 268.044,101.186 267.652,101.202 10.001,101.202 9.608,101.186 9.218,101.140 8.833,101.063 8.455,100.957 8.087,100.821 7.731,100.657 7.388,100.465 7.062,100.247 6.753,100.004 6.465,99.737 6.198,99.449 5.955,99.140 5.737,98.814 5.545,98.471 5.381,98.115 5.245,97.747 5.139,97.369 5.062,96.984 5.016,96.594 5.000,96.201 5.001,10.001 5.016,9.608 5.062,9.218 5.139,8.833 5.245,8.455 5.381,8.087 5.545,7.731 5.737,7.388 5.955,7.062 6.198,6.753 6.465,6.465 6.753,6.198 7.062,5.955 7.388,5.737 7.731,5.545 8.087,5.381 8.455,5.245 8.833,5.139 9.218,5.062 9.608,5.016 10.001,5.000" style="fill:none;stroke-width:0.050000mm;stroke:black"/>
<polygon points="9.537,94.775 9.119,94.988 8.787,95.320 8.574,95.738 8.501,96.202 8.574,96.665 8.787,97.083 9.119,97.415 9.537,97.628 10.001,97.702 10.464,97.628 10.882,97.415 11.214,97.083 11.427,96.665 11.501,96.202 11.427,95.738 11.214,95.320 10.882,94.988 10.464,94.775 10.001,94.702" style="fill:none;stroke-width:0.050000mm;stroke:black"/>
<polygon points="138.362,94.775 137.944,94.988 137.612,95.320 137.399,95.738 137.326,96.202 137.399,96.665 137.612,97.083 137.944,97.415 138.362,97.628 138.826,97.702 139.290,97.628 139.708,97.415 140.040,97.083 140.253,96.665 140.326,96.202 140.253,95.738 140.040,95.320 139.708,94.988 139.290,94.775 138.826,94.702" style="fill:none;stroke-width:0.050000mm;stroke:black"/>
<polygon points="267.188,94.775 266.770,94.988 266.438,95.320 266.225,95.738 266.152,96.202 266.225,96.665 266.438,97.083 266.770,97.415 267.188,97.628 267.652,97.702 268.115,97.628 268.533,97.415 268.865,97.083 269.078,96.665 269.152,96.202 269.078,95.738 268.865,95.320 268.533,94.988 268.115,94.775 267.652,94.702" style="fill:none;stroke-width:0.050000mm;stroke:black"/>
<polygon points="93.726,74.676 93.726,79.376 92.296,79.376 92.296,76.146 85.451,76.146 85.451,79.376 84.626,79.376 84.626,82.176 85.451,82.176 85.451,88.446 87.176,88.446 87.176,89.646 90.571,89.646 90.571,88.446 92.296,88.446 92.296,83.976 93.726,83.976 93.726,88.676 107.726,88.676 107.726,83.976 109.251,83.976 109.251,88.446 110.976,88.446 110.976,89.646 114.276,89.646 114.276,88.446 116.001,88.446 116.001,83.976 127.063,83.976 127.063,88.676 145.921,88.676 145.921,83.976 156.888,83.976 156.888,88.446 158.613,88.446 158.613,89.646 161.913,89.646 161.913,88.446 163.638,88.446 163.638,83.976 165.163,83.976 165.163,88.676 179.163,88.676 179.163,83.976 180.688,83.976 180.688,88.446 182.413,88.446 182.413,89.646 185.713,89.646 185.713,88.446 187.271,88.446 187.271,89.646 190.571,89.646 190.571,88.446 192.296,88.446 192.296,82.176 193.121,82.176 193.121,79.376 192.296,79.376 192.296,76.146 180.688,76.146 180.688,79.376 179.163,79.376 179.163,74.676 165.163,74.676 165.163,79.376 163.638,79.376 163.638,76.146 156.888,76.146 156.888,79.376 145.921,79.376 145.921,74.676 127.063,74.676 127.063,79.376 116.001,79.376 116.001,76.146 109.251,76.146 109.251,79.376 107.726,79.376 107.726,74.676" style="fill:none;stroke-width:0.050000mm;stroke:black"/>
<polygon points="222.313,74.676 222.313,88.676 236.313,88.676 236.313,74.676" style="fill:none;stroke-width:0.050000mm;stroke:black"/>
<polygon points="200.882,74.676 200.882,88.676 214.882,88.676 214.882,74.676" style="fill:none;stroke-width:0.050000mm;stroke:black"/>
<polygon points="62.769,74.676 62.769,88.676 76.769,88.676 76.769,74.676" style="fill:none;stroke-width:0.050000mm;stroke:black"/>
<polygon points="41.338,74.676 41.338,88.676 55.338,88.676 55.338,74.676" style="fill:none;stroke-width:0.050000mm;stroke:black"/>
<polygon points="243.744,55.626 243.744,69.626 257.744,69.626 257.744,55.626" style="fill:none;stroke-width:0.050000mm;stroke:black"/>
<polygon points="222.313,55.626 222.313,69.626 236.313,69.626 236.313,55.626" style="fill:none;stroke-width:0.050000mm;stroke:black"/>
<polygon points="203.263,55.626 203.263,69.626 217.263,69.626 217.263,55.626" style="fill:none;stroke-width:0.050000mm;stroke:black"/>
<polygon points="184.213,55.626 184.213,69.626 198.213,69.626 198.213,55.626" style="fill:none;stroke-width:0.050000mm;stroke:black"/>
<polygon points="165.163,55.626 165.163,69.626 179.163,69.626 179.163,55.626" style="fill:none;stroke-width:0.050000mm;stroke:black"/>
<polygon points="146.113,55.626 146.113,69.626 160.113,69.626 160.113,55.626" style="fill:none;stroke-width:0.050000mm;stroke:black"/>
<polygon points="127.063,55.626 127.063,69.626 141.063,69.626 141.063,55.626" style="fill:none;stroke-width:0.050000mm;stroke:black"/>
<polygon points="108.013,55.626 108.013,69.626 122.013,69.626 122.013,55.626" style="fill:none;stroke-width:0.050000mm;stroke:black"/>
<polygon points="88.963,55.626 88.963,69.626 102.963,69.626 102.963,55.626" style="fill:none;stroke-width:0.050000mm;stroke:black"/>
<polygon points="69.913,55.626 69.913,69.626 83.913,69.626 83.913,55.626" style="fill:none;stroke-width:0.050000mm;stroke:black"/>
<polygon points="50.863,55.626 50.863,69.626 64.862,69.626 64.862,55.626" style="fill:none;stroke-width:0.050000mm;stroke:black"/>
<polygon points="24.669,55.626 24.669,69.626 38.669,69.626 38.669,55.626" style="fill:none;stroke-width:0.050000mm;stroke:black"/>
<polygon points="241.363,36.576 241.363,50.576 255.363,50.576 255.363,36.576" style="fill:none;stroke-width:0.050000mm;stroke:black"/>
<polygon points="217.551,36.576 217.551,50.576 231.551,50.576 231.551,36.576" style="fill:none;stroke-width:0.050000mm;stroke:black"/>
<polygon points="198.501,36.576 198.501,50.576 212.501,50.576 212.501,36.576" style="fill:none;stroke-width:0.050000mm;stroke:black"/>
<polygon points="179.451,36.576 179.451,50.576 193.451,50.576 193.451,36.576" style="fill:none;stroke-width:0.050000mm;stroke:black"/>
<polygon points="160.401,36.576 160.401,50.576 174.401,50.576 174.401,36.576" style="fill:none;stroke-width:0.050000mm;stroke:black"/>
<polygon points="141.351,36.576 141.351,50.576 155.351,50.576 155.351,36.576" style="fill:none;stroke-width:0.050000mm;stroke:black"/>
<polygon points="122.301,36.576 122.301,50.576 136.301,50.576 136.301,36.576" style="fill:none;stroke-width:0.050000mm;stroke:black"/>
<polygon points="103.251,36.576 103.251,50.576 117.251,50.576 117.251,36.576" style="fill:none;stroke-width:0.050000mm;stroke:black"/>
<polygon points="84.201,36.576 84.201,50.576 98.201,50.576 98.201,36.576" style="fill:none;stroke-width:0.050000mm;stroke:black"/>
<polygon points="65.151,36.576 65.151,50.576 79.151,50.576 79.151,36.576" style="fill:none;stroke-width:0.050000mm;stroke:black"/>
<polygon points="46.101,36.576 46.101,50.576 60.101,50.576 60.101,36.576" style="fill:none;stroke-width:0.050000mm;stroke:black"/>
<polygon points="22.288,36.576 22.288,50.576 36.288,50.576 36.288,36.576" style="fill:none;stroke-width:0.050000mm;stroke:black"/>
<polygon points="236.601,17.526 236.601,22.225 235.076,22.225 235.076,18.995 228.326,18.995 228.326,22.225 227.501,22.225 227.501,25.026 228.326,25.026 228.326,31.295 230.051,31.295 230.051,32.495 233.351,32.495 233.351,31.295 235.076,31.295 235.076,26.826 236.601,26.826 236.601,31.526 250.601,31.526 250.601,26.826 252.126,26.826 252.126,31.295 253.851,31.295 253.851,32.495 257.150,32.495 257.150,31.295 258.876,31.295 258.876,25.026 259.701,25.026 259.701,22.225 258.876,22.225 258.876,18.995 252.126,18.995 252.126,22.225 250.601,22.225 250.601,17.526" style="fill:none;stroke-width:0.050000mm;stroke:black"/>
<polygon points="208.026,17.526 208.026,31.526 222.026,31.526 222.026,17.526" style="fill:none;stroke-width:0.050000mm;stroke:black"/>
<polygon points="188.976,17.526 188.976,31.526 202.976,31.526 202.976,17.526" style="fill:none;stroke-width:0.050000mm;stroke:black"/>
<polygon points="169.926,17.526 169.926,31.526 183.926,31.526 183.926,17.526" style="fill:none;stroke-width:0.050000mm;stroke:black"/>
<polygon points="150.876,17.526 150.876,31.526 164.876,31.526 164.876,17.526" style="fill:none;stroke-width:0.050000mm;stroke:black"/>
<polygon points="131.826,17.526 131.826,31.526 145.826,31.526 145.826,17.526" style="fill:none;stroke-width:0.050000mm;stroke:black"/>
<polygon points="112.775,17.526 112.775,31.526 126.775,31.526 126.775,17.526" style="fill:none;stroke-width:0.050000mm;stroke:black"/>
<polygon points="93.726,17.526 93.726,31.526 107.726,31.526 107.726,17.526" style="fill:none;stroke-width:0.050000mm;stroke:black"/>
<polygon points="74.676,17.526 74.676,31.526 88.676,31.526 88.676,17.526" style="fill:none;stroke-width:0.050000mm;stroke:black"/>
<polygon points="55.626,17.526 55.626,31.526 69.626,31.526 69.626,17.526" style="fill:none;stroke-width:0.050000mm;stroke:black"/>
<polygon points="36.576,17.526 36.576,31.526 50.576,31.526 50.576,17.526" style="fill:none;stroke-width:0.050000mm;stroke:black"/>
<polygon points="17.526,17.526 17.526,31.526 31.526,31.526 31.526,17.526" style="fill:none;stroke-width:0.050000mm;stroke:black"/>
<polygon points="9.537,8.574 9.119,8.787 8.787,9.119 8.574,9.537 8.501,10.001 8.574,10.464 8.787,10.882 9.119,11.214 9.537,11.427 10.001,11.501 10.464,11.427 10.882,11.214 11.214,10.882 11.427,10.464 11.501,10.001 11.427,9.537 11.214,9.119 10.882,8.787 10.464,8.574 10.001,8.501" style="fill:none;stroke-width:0.050000mm;stroke:black"/>
<polygon points="267.188,8.574 266.770,8.787 266.438,9.119 266.225,9.537 266.152,10.001 266.225,10.464 266.438,10.882 266.770,11.214 267.188,11.427 267.652,11.501 268.115,11.427 268.533,11.214 268.865,10.882 269.078,10.464 269.152,10.001 269.078,9.537 268.865,9.119 268.533,8.787 268.115,8.574 267.652,8.501" style="fill:none;stroke-width:0.050000mm;stroke:black"/>
<polygon points="138.362,8.574 137.944,8.787 137.612,9.119 137.399,9.537 137.326,10.001 137.399,10.464 137.612,10.882 137.944,11.214 138.362,11.427 138.826,11.501 139.290,11.427 139.708,11.214 140.040,10.882 140.253,10.464 140.326,10.001 140.253,9.537 140.040,9.119 139.708,8.787 139.290,8.574 138.826,8.501" style="fill:none;stroke-width:0.050000mm;stroke:black"/>
</svg>
